<?xml version="1.0" standalone="no"?>
<!DOCTYPE svg PUBLIC "-//W3C//DTD SVG 20010904//EN"
 "http://www.w3.org/TR/2001/REC-SVG-20010904/DTD/svg10.dtd">
<svg version="1.0" xmlns="http://www.w3.org/2000/svg"
 width="100.000000pt" height="100.000000pt" viewBox="0 0 100.000000 100.000000"
 preserveAspectRatio="xMidYMid meet">

<g transform="translate(0.000000,100.000000) scale(0.100000,-0.100000)"
fill="#000000" stroke="none">
<path d="M315 901 c-3 -5 -1 -12 5 -16 5 -3 10 1 10 9 0 18 -6 21 -15 7z"/>
<path d="M350 870 c0 -5 5 -10 10 -10 6 0 10 5 10 10 0 6 -4 10 -10 10 -5 0
-10 -4 -10 -10z"/>
<path d="M284 858 c-5 -8 3 -12 44 -21 23 -5 27 0 14 18 -9 12 -51 15 -58 3z"/>
<path d="M452 833 c-22 -4 -20 -9 37 -68 41 -43 59 -68 55 -79 -12 -31 7 -83
52 -145 51 -71 61 -70 90 5 36 95 -8 216 -96 260 -48 25 -101 35 -138 27z"/>
<path d="M370 820 c0 -5 5 -10 10 -10 6 0 10 5 10 10 0 6 -4 10 -10 10 -5 0
-10 -4 -10 -10z"/>
<path d="M300 802 c0 -9 7 -13 19 -9 10 2 25 0 34 -4 11 -7 14 -5 11 9 -6 22
-64 26 -64 4z"/>
<path d="M299 718 c-70 -149 30 -308 193 -308 33 0 69 11 86 26 8 6 -91 134
-104 134 -8 0 -23 14 -33 31 -11 18 -21 25 -23 18 -3 -8 -9 -9 -18 -4 -10 6
-10 10 4 20 15 11 15 16 1 48 -10 25 -20 35 -30 31 -9 -4 -15 0 -15 10 0 9 5
16 10 16 25 0 7 25 -19 26 -25 1 -32 -5 -52 -48z m98 -54 c-9 -9 -28 6 -21 18
4 6 10 6 17 -1 6 -6 8 -13 4 -17z"/>
<path d="M425 670 c3 -5 8 -10 11 -10 2 0 4 5 4 10 0 6 -5 10 -11 10 -5 0 -7
-4 -4 -10z"/>
<path d="M547 549 c-14 -8 -16 -14 -6 -25 23 -29 59 -10 36 19 -9 12 -16 14
-30 6z"/>
<path d="M0 310 c0 -5 7 -10 15 -10 8 0 15 5 15 10 0 6 -7 10 -15 10 -8 0 -15
-4 -15 -10z"/>
<path d="M50 272 c0 -58 21 -92 58 -92 15 0 32 4 38 8 28 18 42 78 28 116 -11
28 -24 17 -24 -20 0 -45 -15 -74 -39 -74 -23 0 -31 19 -31 71 0 28 -4 39 -15
39 -11 0 -15 -12 -15 -48z"/>
<path d="M220 300 c-44 -44 -8 -120 57 -120 59 0 87 72 30 78 -19 2 -27 -1
-27 -12 0 -9 5 -16 10 -16 6 0 10 -4 10 -10 0 -14 -43 -13 -58 2 -18 18 -15
43 8 63 16 15 24 16 45 7 17 -8 26 -8 31 -1 19 32 -76 39 -106 9z"/>
<path d="M360 250 c0 -56 3 -70 15 -70 9 0 15 9 15 25 0 15 6 25 14 25 8 0 17
-11 20 -25 4 -14 13 -25 21 -25 16 0 18 14 6 45 -5 11 -4 30 2 42 14 32 -7 53
-54 53 l-39 0 0 -70z m65 30 c0 -8 -8 -16 -17 -18 -13 -2 -18 3 -18 18 0 15 5
20 18 18 9 -2 17 -10 17 -18z"/>
<path d="M480 267 c0 -40 5 -58 18 -70 23 -21 75 -22 92 -2 16 20 24 96 11
115 -14 21 -23 8 -29 -45 -8 -79 -62 -70 -62 11 0 32 -4 44 -15 44 -11 0 -15
-13 -15 -53z"/>
<path d="M630 250 c0 -56 3 -70 15 -70 8 0 15 8 15 18 0 9 15 24 33 32 61 28
45 90 -24 90 l-39 0 0 -70z m65 25 c0 -11 -8 -21 -17 -23 -14 -3 -18 3 -18 23
0 20 4 26 18 23 9 -2 17 -12 17 -23z"/>
<path d="M750 250 c0 -56 3 -70 15 -70 8 0 15 8 15 18 0 9 15 24 33 32 61 28
45 90 -24 90 l-39 0 0 -70z m65 25 c0 -11 -8 -21 -17 -23 -14 -3 -18 3 -18 23
0 20 4 26 18 23 9 -2 17 -12 17 -23z"/>
<path d="M885 300 c-41 -45 -8 -120 52 -120 48 0 63 17 63 68 0 27 -5 53 -12
60 -20 20 -83 15 -103 -8z m79 -13 c38 -27 -2 -95 -41 -71 -25 16 -29 55 -7
71 10 7 21 13 24 13 3 0 14 -6 24 -13z"/>
<path d="M10 133 c14 -7 13 -40 -2 -46 -8 -3 -5 -6 5 -6 14 -1 18 5 15 26 -2
14 -9 28 -16 29 -7 1 -8 0 -2 -3z"/>
<path d="M50 131 c0 -5 7 -14 15 -21 16 -14 18 -10 9 14 -6 17 -24 22 -24 7z"/>
<path d="M88 115 c-6 -30 -3 -43 8 -33 3 4 4 19 2 35 l-3 28 -7 -30z"/>
<path d="M138 110 c2 -17 5 -30 7 -30 2 0 5 13 7 30 3 19 0 30 -7 30 -7 0 -10
-11 -7 -30z"/>
<path d="M190 110 c0 -29 1 -29 20 -13 11 10 20 23 20 30 0 7 -9 13 -20 13
-16 0 -20 -7 -20 -30z m30 16 c0 -3 -4 -8 -10 -11 -5 -3 -10 -1 -10 4 0 6 5
11 10 11 6 0 10 -2 10 -4z"/>
<path d="M260 114 c-6 -15 -8 -29 -5 -32 2 -3 9 6 14 19 7 16 10 19 10 7 1 -9
5 -19 10 -22 4 -3 6 6 3 19 -7 36 -21 40 -32 9z"/>
<path d="M338 133 c7 -3 16 -2 19 1 4 3 -2 6 -13 5 -11 0 -14 -3 -6 -6z"/>
<path d="M391 110 c-6 -18 -6 -28 -1 -25 6 4 10 14 11 23 0 12 3 9 10 -7 5
-13 12 -22 14 -19 6 6 -12 58 -19 58 -2 0 -9 -14 -15 -30z"/>
<path d="M520 110 c0 -25 4 -31 18 -28 11 2 17 12 17 28 0 16 -6 26 -17 28
-14 3 -18 -3 -18 -28z m30 0 c0 -11 -4 -20 -10 -20 -5 0 -10 9 -10 20 0 11 5
20 10 20 6 0 10 -9 10 -20z"/>
<path d="M640 126 c0 -8 7 -17 16 -20 14 -5 15 -4 5 8 -9 11 -9 15 1 19 8 4 7
6 -4 6 -10 1 -18 -5 -18 -13z"/>
<path d="M700 110 c0 -22 5 -30 18 -30 14 0 15 2 2 10 -13 9 -13 11 0 20 13 9
13 10 0 11 -10 0 -8 3 5 9 19 8 19 9 -2 9 -19 1 -23 -4 -23 -29z"/>
<path d="M770 130 c0 -5 7 -7 15 -4 8 4 15 8 15 10 0 2 -7 4 -15 4 -8 0 -15
-4 -15 -10z"/>
<path d="M834 110 c1 -15 8 -26 19 -28 14 -3 17 3 16 30 -2 30 -2 31 -6 6 -5
-34 -20 -37 -26 -5 -3 19 -4 19 -3 -3z"/>
<path d="M900 108 c0 -25 3 -29 10 -18 8 12 12 12 18 2 6 -9 9 -3 10 17 0 24
-4 31 -19 31 -15 0 -19 -7 -19 -32z m30 18 c0 -3 -4 -8 -10 -11 -5 -3 -10 -1
-10 4 0 6 5 11 10 11 6 0 10 -2 10 -4z"/>
<path d="M978 133 c7 -3 16 -2 19 1 4 3 -2 6 -13 5 -11 0 -14 -3 -6 -6z"/>
<path d="M461 108 c-1 -21 4 -28 17 -28 11 0 13 3 6 8 -7 4 -14 16 -17 27 -4
15 -5 14 -6 -7z"/>
<path d="M964 100 c1 -8 10 -16 21 -17 15 -1 15 0 3 3 -9 3 -19 11 -21 17 -2
7 -3 5 -3 -3z"/>
<path d="M796 98 c5 -8 2 -9 -9 -5 -10 3 -17 2 -17 -3 0 -6 9 -10 20 -10 11 0
20 7 20 15 0 8 -5 15 -11 15 -5 0 -7 -5 -3 -12z"/>
<path d="M648 83 c7 -3 16 -2 19 1 4 3 -2 6 -13 5 -11 0 -14 -3 -6 -6z"/>
</g>
</svg>
